2.6Hz3min_grf.mot
version=1
nRows=15
nColumns 19
inDegrees=yes
endheader
time	1_ground_force_vx	1_ground_force_vy	1_ground_force_vz	1_ground_force_px	1_ground_force_py	1_ground_force_pz	1_ground_torque_x	1_ground_torque_y	1_ground_torque_z	2_ground_force_vx	2_ground_force_vy	2_ground_force_vz	2_ground_force_px	2_ground_force_py	2_ground_force_pz	2_ground_torque_x	2_ground_torque_y	2_ground_torque_z
            2.502500	          -44.311348	         1061.020494	          -75.957592	           -0.249309	            0.006056	           -0.367084	           -0.120837	            2.893407	           -0.207137	          -89.208198	          909.019486	          105.022563	           -0.246358	            0.005650	           -0.713269	            0.041560	           -0.423493	           -0.048928
            2.503000	          -44.493903	         1059.036536	          -75.782217	           -0.249140	            0.006055	           -0.366858	           -0.117318	            2.792379	           -0.199816	          -88.922553	          907.732292	          104.783211	           -0.246232	            0.005651	           -0.713386	            0.042358	           -0.432392	           -0.049913
            2.503500	          -44.125312	         1054.528287	          -75.389736	           -0.248971	            0.006056	           -0.367029	           -0.111601	            2.667104	           -0.190675	          -88.723141	          904.417980	          104.865160	           -0.246150	            0.005651	           -0.713330	            0.032347	           -0.329736	           -0.038232
            2.504000	          -44.171240	         1051.284615	          -75.678679	           -0.248824	            0.006056	           -0.367029	           -0.111147	            2.645313	           -0.190428	          -88.482362	          902.578133	          104.623842	           -0.246135	            0.005652	           -0.713582	            0.033941	           -0.346222	           -0.040133
            2.504500	          -44.031527	         1048.037290	          -75.050942	           -0.248640	            0.006055	           -0.366827	           -0.107627	            2.561727	           -0.183448	          -87.821135	          901.107376	          104.618306	           -0.246075	            0.005652	           -0.713533	            0.033048	           -0.339095	           -0.039369
            2.505000	          -44.168527	         1045.153013	          -75.062969	           -0.248505	            0.006055	           -0.366797	           -0.109557	            2.592438	           -0.186189	          -87.391680	          898.900427	          104.234818	           -0.245921	            0.005653	           -0.713636	            0.032126	           -0.330442	           -0.038317
            2.505500	          -43.892815	         1041.547630	          -75.079111	           -0.248396	            0.006055	           -0.366790	           -0.112142	            2.661068	           -0.191821	          -86.635374	          897.061102	          104.368720	           -0.245913	            0.005653	           -0.713646	            0.027104	           -0.280646	           -0.032652
            2.506000	          -43.524568	         1038.301285	          -74.727087	           -0.248212	            0.006055	           -0.366835	           -0.111181	            2.652282	           -0.190886	          -86.154388	          893.565231	          104.027532	           -0.245941	            0.005653	           -0.713653	            0.014155	           -0.146810	           -0.017091
            2.506500	          -43.478391	         1035.237262	          -74.832061	           -0.248039	            0.006055	           -0.366805	           -0.109201	            2.600118	           -0.187949	          -85.776930	          892.829900	          104.024744	           -0.245912	            0.005654	           -0.713912	            0.012938	           -0.134671	           -0.015691
            2.507000	          -43.478125	         1032.533579	          -74.935360	           -0.247869	            0.006055	           -0.366697	           -0.103719	            2.463153	           -0.178762	          -84.927729	          891.176287	          103.830760	           -0.245836	            0.005654	           -0.713819	            0.009948	           -0.104391	           -0.012163
            2.507500	          -43.293721	         1028.747415	          -74.814491	           -0.247774	            0.006055	           -0.366880	           -0.100288	            2.383055	           -0.173305	          -84.167517	          888.232788	          103.773008	           -0.245833	            0.005654	           -0.713778	            0.013520	           -0.142674	           -0.016669
            2.508000	          -43.384444	         1025.321790	          -74.691378	           -0.247626	            0.006055	           -0.366680	           -0.099793	            2.358440	           -0.171805	          -83.643736	          885.842432	          103.294966	           -0.245864	            0.005654	           -0.713953	            0.002482	           -0.026282	           -0.003065
            2.508500	          -43.200042	         1022.797184	          -74.473378	           -0.247432	            0.006054	           -0.366599	           -0.100233	            2.373093	           -0.172793	          -83.023428	          882.714391	          103.189680	           -0.245892	            0.005653	           -0.713807	            0.001265	           -0.013452	           -0.001573
            2.509000	          -42.924304	         1018.471058	          -74.538464	           -0.247329	            0.006055	           -0.366671	           -0.101645	            2.411735	           -0.176507	          -81.986170	          880.877375	          102.994959	           -0.245725	            0.005654	           -0.713870	           -0.012320	            0.132370	            0.015477
            2.509500	          -43.015614	         1015.767282	          -74.595683	           -0.247228	            0.006054	           -0.366578	           -0.098033	            2.314946	           -0.170005	          -81.041369	          878.672287	          102.611251	           -0.245882	            0.005655	           -0.714140	           -0.007667	            0.083133	            0.009708
